<?xml version="1.0" encoding="UTF-8"?>
<svg id="Layer_2" data-name="Layer 2" xmlns="http://www.w3.org/2000/svg" viewBox="0 0 1887.23 230.01">
  <defs>
    <style>
      .cls-1 {
        fill: #fff;
      }

      .cls-2 {
        fill: #51f3d9;
      }
    </style>
  </defs>
  <g id="Layer_1-2" data-name="Layer 1">
    <g>
      <path class="cls-1" d="m31.06,215.83c0,9.13-5.21,13.69-15.64,13.69s-15.41-4.56-15.41-13.69V14.69C0,5.39,5.36.75,16.09.75c9.97,0,14.96,4.65,14.96,13.94v201.14Z"/>
      <path class="cls-1" d="m116.26,62.98C116.26,21.49,150.04.75,217.59.75h46.24c63.93,0,95.89,20.75,95.89,62.23v151.35c0,9.3-5.1,13.94-15.3,13.94s-15.76-4.64-15.76-13.94V65.72c0-25.22-20.15-37.84-60.45-37.84h-55.69c-43.92,0-65.88,12.53-65.88,37.59v148.86c0,9.3-5.21,13.94-15.64,13.94-9.83,0-14.73-4.64-14.73-13.94V62.98Z"/>
      <path class="cls-1" d="m663,58.25c0-19.25-16.55-28.88-49.64-28.88h-153.69c-8.47,0-12.69-4.31-12.69-12.94,0-9.46,4.23-14.19,12.69-14.19h154.37c52.89,0,79.34,18.67,79.34,56.01v110.78c0,39.67-26.67,59.5-80.02,59.5h-156.41c-6.65,0-9.97-3.82-9.97-11.45V76.42c0-10.29,5.14-15.43,15.41-15.43s15.64,5.15,15.64,15.43v124.96h134.65c33.55,0,50.32-10.79,50.32-32.36V58.25Z"/>
      <path class="cls-1" d="m810.1,172.51c0,19.25,16.7,28.88,50.1,28.88h130.8c7.4,0,11.11,4.57,11.11,13.69s-3.71,13.44-11.11,13.44h-131.93c-53.35,0-80.02-18.17-80.02-54.52V58.25c0-37.34,27.58-56.01,82.74-56.01h134.54c7.1,0,10.65,4.65,10.65,13.94,0,8.8-3.55,13.19-10.65,13.19h-122.98c-42.16,0-63.25,9.63-63.25,28.88v114.26Zm180.9-69.7c7.1,0,10.65,4.61,10.65,13.82s-3.55,13.31-10.65,13.31h-155.73c-9.07,0-13.6-4.44-13.6-13.31s4.53-13.82,13.6-13.82h155.73Z"/>
      <path class="cls-1" d="m1073.71,62.98c0-41.49,33.78-62.23,101.33-62.23h46.24c63.93,0,95.89,20.75,95.89,62.23v151.35c0,9.3-5.1,13.94-15.3,13.94s-15.76-4.64-15.76-13.94V65.72c0-25.22-20.15-37.84-60.45-37.84h-55.69c-43.92,0-65.88,12.53-65.88,37.59v148.86c0,9.3-5.21,13.94-15.64,13.94-9.83,0-14.73-4.64-14.73-13.94V62.98Z"/>
      <path class="cls-1" d="m1390.13,29.37c-7.56,0-11.33-4.73-11.33-14.19,0-8.63,3.78-12.94,11.33-12.94h199.94c7.25,0,10.88,4.32,10.88,12.94,0,9.46-3.63,14.19-10.88,14.19h-199.94Z"/>
      <path class="cls-2" d="m1671.43,229.77c-7.56,0-11.33-4.73-11.33-14.19,0-8.63,3.78-12.94,11.33-12.94h150.74c7.25,0,10.88,4.32,10.88,12.94,0,9.46-3.63,14.19-10.88,14.19h-150.74Z"/>
      <path class="cls-1" d="m1505.29,215.83c0,9.46-5.06,14.19-15.19,14.19s-15.41-4.73-15.41-14.19V57.75c0-11.12,5.06-16.68,15.19-16.68s15.41,5.56,15.41,16.68v158.07Z"/>
      <path class="cls-1" d="m1746.46,36.34l-113.12,186.7c-1.36,2.49-3.03,4.23-4.99,5.23-1.97,1-4.23,1.49-6.8,1.49-3.78,0-7.33-1.37-10.65-4.11-3.33-2.74-4.99-6.35-4.99-10.83,0-1.16.15-2.49.45-3.98.3-1.49.98-2.99,2.04-4.48l-.23.25,118.33-194.42c2.42-3.98,5.33-7.01,8.73-9.09,3.4-2.07,6.99-3.11,10.77-3.11,3.47,0,6.99,1,10.54,2.99,3.55,1.99,6.61,5.06,9.18,9.21l118.56,193.92h-.23c2.11,3.32,3.17,6.31,3.17,8.96,0,4.32-1.63,7.8-4.87,10.46-3.25,2.66-6.77,3.98-10.54,3.98-2.42,0-4.76-.58-7.03-1.74-2.27-1.16-4.08-2.99-5.44-5.48v.25l-112.89-186.2Z"/>
    </g>
  </g>
</svg>